# xmcd
#
# Track frame offsets:
#	150
#	4218
#	27539
#	54487
#	78278
#	99257
#	121894
#	147444
#	171684
#
# Disc length: 2607 seconds
#
# Revision: 2
# Processed by: cddbd v1.5.2PL0 Copyright (c) Steve Scherf et al.
# Submitted via: audiograbber 1.83.01
#
DISCID=750a2d09
DTITLE=Five Feathers Music - Band In The Pocket 1
DYEAR=1900
DGENRE=Blues
TTITLE0=Tuning (A=440)
TTITLE1=Upper East Side Shuffle (A)
TTITLE2=Beepin Blues (E)
TTITLE3=Minor Blues (Bm)
TTITLE4=All Right Shuffle (F)
TTITLE5=Zz Shuffle (A)
TTITLE6=6-8 Blues (G)
TTITLE7=Basement Blues (G)
TTITLE8=Hometown Blues (C)
EXTD=
EXTT0=
EXTT1=
EXTT2=
EXTT3=
EXTT4=
EXTT5=
EXTT6=
EXTT7=
EXTT8=
PLAYORDER=
